# xmcd CD database file
#
# Track frame offsets:
#	150
#	16692
#	36277
#	50662
#	65825
#	84792
#	100255
#	117045
#	132322
#	146490
#	158702
#	173982
#	186220
#	200397
#	216960
#	232485
#	247542
#	267102
#	281735
#	296827
#	314622
#
# Disc length: 4434 seconds
#
# Revision: 0
# Processed by: cddbd v1.5.2PL0 Copyright (c) Steve Scherf et al.
# Submitted via: CDex 1.70beta2
#
DISCID=39115015
DTITLE=Jones Country - Jones Country JCY-014
DYEAR=0000
DGENRE=Country
TTITLE0=Eagles/Desperado
TTITLE1=Eacles/Lyin' Eyes
TTITLE2=Skip Ewing/Burnin' A Hole In My Heart
TTITLE3=Exile/Crazy For Your Love
TTITLE4=Exile/I Can't Get Close Enough
TTITLE5=Exile/I Don't Want To Be A Memory
TTITLE6=Exile/She's Too Good To Be True
TTITLE7=Foster and Lloyd/Crazy Over You
TTITLE8=Foster and Lloyd/What Do You Want From Me This Time?
TTITLE9=Janie Fricke/Easy To Please
TTITLE10=Janie Fricke/Please Help Me, I'm Falling (In Love With You)
TTITLE11=Janie Fricke/She's Single Again
TTITLE12=Janie Fricke/Somebody Else's Fire
TTITLE13=Janie Fricke/First Word In Memory Is Me
TTITLE14=Janie Fricke/You Don't Know Love
TTITLE15=Larry Gatlin and The Gatlin Brothers/I've Done Enough Dyin' Today
TTITLE16=Crystal Gayle/Cry
TTITLE17=Crystal Gayle/I Don't Wanna Lose Your Love
TTITLE18=Crystal Gayle and Gary Morris/Makin' Up For Lost Time
TTITLE19=Crystal Gayle/Straight To The Heart
TTITLE20=Crystal Gayle/'Til I Gain Control Again
EXTD=YEAR: 0000
EXTT0=
EXTT1=
EXTT2=
EXTT3=
EXTT4=
EXTT5=
EXTT6=
EXTT7=
EXTT8=
EXTT9=
EXTT10=
EXTT11=
EXTT12=
EXTT13=
EXTT14=
EXTT15=
EXTT16=
EXTT17=
EXTT18=
EXTT19=
EXTT20=
PLAYORDER=
